<svg width="48" height="48" viewBox="0 0 48 48" fill="none" xmlns="http://www.w3.org/2000/svg">
<rect x="0.5" y="0.5" width="47" height="47" rx="5.5" fill="white"/>
<g clip-path="url(#clip0_1305_64238)">
<path d="M24 30.9966C27.866 30.9966 31 27.8626 31 23.9966C31 20.1306 27.866 16.9966 24 16.9966C20.134 16.9966 17 20.1306 17 23.9966C17 27.8626 20.134 30.9966 24 30.9966Z" fill="white"/>
<path d="M24.0002 17H36.1226C34.8942 14.8717 33.1271 13.1042 30.9989 11.8754C28.8708 10.6467 26.4567 9.99983 23.9993 10C21.5419 10.0002 19.1278 10.6473 16.9999 11.8764C14.8719 13.1055 13.105 14.8732 11.877 17.0017L17.9381 27.5L17.9436 27.4986C17.327 26.4354 17.0016 25.2283 17.0002 23.9992C16.9988 22.7701 17.3215 21.5624 17.9357 20.4978C18.5499 19.4331 19.4339 18.5492 20.4986 17.9351C21.5633 17.321 22.7711 16.9985 24.0002 17Z" fill="url(#paint0_linear_1305_64238)"/>
<path d="M23.9997 29.5417C27.0603 29.5417 29.5413 27.0606 29.5413 24C29.5413 20.9395 27.0603 18.4584 23.9997 18.4584C20.9391 18.4584 18.458 20.9395 18.458 24C18.458 27.0606 20.9391 29.5417 23.9997 29.5417Z" fill="#1A73E8"/>
<path d="M30.0617 27.5017L24.0006 38C26.458 38.0004 28.8721 37.3537 31.0003 36.1251C33.1285 34.8964 34.8958 33.1291 36.1243 31.0009C37.3529 28.8726 37.9994 26.4584 37.999 24.001C37.9985 21.5436 37.3511 19.1297 36.1218 17.0018H23.9995L23.998 17.0073C25.2272 17.0049 26.4352 17.3266 27.5003 17.9399C28.5654 18.5533 29.45 19.4366 30.065 20.5008C30.6799 21.5651 31.0033 22.7726 31.0028 24.0017C31.0022 25.2308 30.6776 26.438 30.0617 27.5017Z" fill="url(#paint1_linear_1305_64238)"/>
<path d="M17.9383 27.5018L11.8772 17.0035C10.6482 19.1315 10.0011 21.5456 10.001 24.003C10.0009 26.4604 10.6478 28.8745 11.8766 31.0026C13.1055 33.1307 14.873 34.8978 17.0014 36.1261C19.1298 37.3544 21.544 38.0007 24.0015 38L30.0626 27.5017L30.0587 27.4978C29.4462 28.5634 28.5636 29.4487 27.4998 30.0644C26.4361 30.6802 25.2288 31.0046 23.9997 31.005C22.7706 31.0054 21.5631 30.6818 20.499 30.0668C19.4348 29.4517 18.5516 28.567 17.9383 27.5018Z" fill="url(#paint2_linear_1305_64238)"/>
</g>
<rect x="0.5" y="0.5" width="47" height="47" rx="5.5" stroke="#F2F3F8"/>
<defs>
<linearGradient id="paint0_linear_1305_64238" x1="11.877" y1="18.75" x2="36.1226" y2="18.75" gradientUnits="userSpaceOnUse">
<stop stop-color="#D93025"/>
<stop offset="1" stop-color="#EA4335"/>
</linearGradient>
<linearGradient id="paint1_linear_1305_64238" x1="22.0879" y1="37.8128" x2="34.2108" y2="16.8155" gradientUnits="userSpaceOnUse">
<stop stop-color="#FCC934"/>
<stop offset="1" stop-color="#FBBC04"/>
</linearGradient>
<linearGradient id="paint2_linear_1305_64238" x1="25.5156" y1="37.1259" x2="13.3927" y2="16.1285" gradientUnits="userSpaceOnUse">
<stop stop-color="#1E8E3E"/>
<stop offset="1" stop-color="#34A853"/>
</linearGradient>
<clipPath id="clip0_1305_64238">
<rect width="28" height="28" fill="white" transform="translate(10 10)"/>
</clipPath>
</defs>
</svg>
