<svg width="48" height="48" fill="none" xmlns="http://www.w3.org/2000/svg"><rect x=".5" y=".5" width="47" height="47" rx="5.5" fill="#fff"/><g clip-path="url(#clip0_1305_64238)"><path d="M24 30.997a7 7 0 100-14 7 7 0 000 14z" fill="#fff"/><path d="M24 17h12.123a13.997 13.997 0 00-24.246.002L17.938 27.5l.006-.001A6.991 6.991 0 0124 17z" fill="url(#paint0_linear_1305_64238)"/><path d="M24 29.542a5.542 5.542 0 100-11.084 5.542 5.542 0 000 11.084z" fill="#1A73E8"/><path d="M30.062 27.502L24 38a13.996 13.996 0 0012.12-20.998H24l-.001.005a6.991 6.991 0 016.064 10.495z" fill="url(#paint1_linear_1305_64238)"/><path d="M17.938 27.502l-6.06-10.498A13.997 13.997 0 0024 38l6.062-10.498-.004-.004a6.99 6.99 0 01-12.12.004z" fill="url(#paint2_linear_1305_64238)"/></g><rect x=".5" y=".5" width="47" height="47" rx="5.5" stroke="#F2F3F8"/><defs><linearGradient id="paint0_linear_1305_64238" x1="11.877" y1="18.75" x2="36.123" y2="18.75" gradientUnits="userSpaceOnUse"><stop stop-color="#D93025"/><stop offset="1" stop-color="#EA4335"/></linearGradient><linearGradient id="paint1_linear_1305_64238" x1="22.088" y1="37.813" x2="34.211" y2="16.816" gradientUnits="userSpaceOnUse"><stop stop-color="#FCC934"/><stop offset="1" stop-color="#FBBC04"/></linearGradient><linearGradient id="paint2_linear_1305_64238" x1="25.516" y1="37.126" x2="13.393" y2="16.128" gradientUnits="userSpaceOnUse"><stop stop-color="#1E8E3E"/><stop offset="1" stop-color="#34A853"/></linearGradient><clipPath id="clip0_1305_64238"><path fill="#fff" transform="translate(10 10)" d="M0 0h28v28H0z"/></clipPath></defs></svg>