<svg width="365" height="303" fill="none" xmlns="http://www.w3.org/2000/svg"><g filter="url(#filter0_d_10_513)"><rect x="57" y="45" width="251.222" height="189.156" rx="8.867" fill="#fff"/></g><rect x="147.144" y="206.078" width="23.644" height="8.867" rx="4.433" fill="#B4B6C4"/><rect x="194.433" y="206.078" width="23.644" height="8.867" rx="4.433" fill="#B4B6C4"/><rect x="241.722" y="206.078" width="23.644" height="8.867" rx="4.433" fill="#B4B6C4"/><rect x="99.856" y="206.078" width="23.644" height="8.867" rx="4.433" fill="#B4B6C4"/><path fill="#1A1947" d="M99.856 138.1H123.5v53.2H99.856zm94.577-5.911h23.644V191.3h-23.644z"/><path fill="#EDEEFD" d="M241.722 102.633h23.644V191.3h-23.644zm-94.578 10.345h23.644V191.3h-23.644z"/><path d="M254.49 109.234a1.48 1.48 0 01-1.892 0l-10.516-8.764c-2.123-1.77-.872-5.226 1.892-5.226h19.14c2.765 0 4.016 3.457 1.892 5.226l-10.516 8.764z" fill="#E9105D"/><rect x="201.822" y="53.867" width="103.444" height="50.244" rx="5.911" fill="#E9105D"/><rect opacity=".4" x="213.644" y="89.333" width="41.378" height="4.433" rx="2.217" fill="#fff"/><path d="M221.258 67.334c-.386 1.38-1.062 3.007-2.028 4.882-.965 1.863-1.841 3.256-2.627 4.18h4.758v-4.117c.469-.924.842-1.87 1.118-2.835h.91v6.952h1.8v1.841h-1.8v3.496h-2.028v-3.496h-6.682v-1.862a37.35 37.35 0 004.407-9.041h2.172zm11.591 0c.869 0 1.662.207 2.379.62.731.414 1.31.987 1.738 1.718.427.73.641 1.551.641 2.462v5.027c0 .897-.207 1.71-.621 2.441a4.654 4.654 0 01-1.717 1.718c-.717.413-1.524.62-2.42.62h-.269c-.911 0-1.731-.207-2.462-.62a4.502 4.502 0 01-1.676-1.738 4.96 4.96 0 01-.6-2.42v-5.028c0-.924.207-1.752.621-2.483a4.496 4.496 0 011.717-1.696c.717-.414 1.517-.621 2.4-.621h.269zm-.125 1.841c-.8 0-1.475.27-2.027.807-.552.524-.828 1.186-.828 1.986v5.338c0 .8.276 1.469.828 2.007.552.524 1.227.786 2.027.786.828 0 1.511-.269 2.049-.807s.807-1.2.807-1.986v-5.338c0-.786-.269-1.448-.807-1.986s-1.221-.807-2.049-.807zm18.646-1.634l-8.607 14.192h-1.448l8.648-14.192h1.407zm-9 .02c.731 0 1.331.242 1.8.725.469.469.704 1.062.704 1.779v2.214c0 .717-.242 1.317-.724 1.8-.469.469-1.062.703-1.78.703h-.145c-.717 0-1.317-.234-1.799-.703-.469-.483-.704-1.083-.704-1.8v-2.214c0-.717.235-1.31.704-1.78.469-.482 1.068-.724 1.799-.724h.145zm-.062 1.138c-.386 0-.696.118-.931.352-.22.22-.331.51-.331.869v2.503c0 .359.111.656.331.89.235.22.545.331.931.331s.69-.11.911-.331c.22-.234.331-.531.331-.89V69.92c0-.359-.111-.648-.331-.869-.221-.234-.525-.352-.911-.352zm8.131 5.835c.717 0 1.31.241 1.779.724.483.469.724 1.062.724 1.779v2.214c0 .717-.234 1.317-.703 1.8-.469.469-1.069.703-1.8.703h-.145c-.731 0-1.331-.234-1.8-.703-.469-.483-.703-1.083-.703-1.8v-2.214c0-.717.234-1.31.703-1.78.483-.482 1.083-.723 1.8-.723h.145zm-.062 1.138c-.386 0-.697.117-.931.351-.221.22-.331.51-.331.87v2.503c0 .358.11.655.331.89.234.22.545.33.931.33s.69-.11.91-.33c.221-.235.331-.532.331-.89v-2.504c0-.358-.11-.648-.331-.869-.22-.234-.524-.351-.91-.351z" fill="#fff"/><circle cx="283.1" cy="77.511" r="10.344" fill="#fff"/><path d="M283.859 74.914c-.391-.417-1.127-.417-1.518 0l-3.871 4.135c-.516.55-.062 1.371.759 1.371h7.743c.82 0 1.274-.82.758-1.371l-3.871-4.135z" fill="#38E7B2"/><defs><filter id="filter0_d_10_513" x=".844" y=".667" width="363.533" height="301.467" filterUnits="userSpaceOnUse" color-interpolation-filters="sRGB"><feFlood flood-opacity="0" result="BackgroundImageFix"/><feColorMatrix in="SourceAlpha" values="0 0 0 0 0 0 0 0 0 0 0 0 0 0 0 0 0 0 127 0" result="hardAlpha"/><feMorphology radius="2.956" in="SourceAlpha" result="effect1_dropShadow_10_513"/><feOffset dy="11.822"/><feGaussianBlur stdDeviation="29.556"/><feColorMatrix values="0 0 0 0 0.0235294 0 0 0 0 0.0470588 0 0 0 0 0.231373 0 0 0 0.08 0"/><feBlend in2="BackgroundImageFix" result="effect1_dropShadow_10_513"/><feBlend in="SourceGraphic" in2="effect1_dropShadow_10_513" result="shape"/></filter></defs></svg>